<svg width="40" height="40" fill="none" xmlns="http://www.w3.org/2000/svg"><path fill-rule="evenodd" clip-rule="evenodd" d="M36.1713 18H38a.6667.6667 0 00.6667-.6667V12A.6667.6667 0 0038 11.3333h-6.2547L30.6667 9.176V6.6667A.6667.6667 0 0030 6h-4a.6667.6667 0 00-.6667.6667v2.6666c0 .3682.2985.6667.6667.6667h3.588l1.0787 2.1573V16c0-1.1046-.8955-2-2-2-1.1046 0-2 .8954-2 2v-1.3333A.6667.6667 0 0026 14h-5.2513l-2.082-.5207V2.6667C18.6667 1.1939 17.4728 0 16 0h-2.6667c-1.4727 0-2.6666 1.194-2.6666 2.6667V10H7.3333c-1.1045 0-2 .8954-2 2v2H.6667a.6667.6667 0 00-.4714 1.138l1.5287 1.5287-1.5287 1.5286a.6668.6668 0 00.4714 1.138h6.6666c1.1046 0 2-.8954 2-2v-2h1.3334V22h-2c-2.3178.0027-4.2823 1.706-4.6134 4H2a.6667.6667 0 00-.6667.6667v2.6666c0 .3682.2985.6667.6667.6667h2v1.3333H.6667A.6667.6667 0 000 32v2.6667c0 .3682.2985.6666.6667.6666H8C8 37.9107 10.0893 40 12.6667 40c2.5773 0 4.6666-2.0893 4.6666-4.6667h12C29.3333 37.9107 31.4227 40 34 40c2.5773 0 4.6667-2.0893 4.6667-4.6667h.6666a.6663.6663 0 00.65-.8166L36.1713 18zm-9.5046-2c0 1.1046.8954 2 2 2 1.1045 0 2-.8954 2-2v14h-2v-.6667c0-1.1045-.8955-2-2-2V20A.6667.6667 0 0026 19.3333h-7.3333v-1.8126l1.838.4593a.6649.6649 0 00.162.02H26a.6667.6667 0 00.6667-.6667V16zm2.6666-7.3333h-2.6666V7.3333h2.6666v1.3334zM4 34v-1.3333H1.3333V34H4zm0-5.3333H2.6667v-1.3334H4v1.3334zm33.3333-16H36v4h1.3333v-4zm-5.3333 0h2.6667v4H32v-4zm-4.6667 16.6666a.6665.6665 0 00-.6666-.6666H24V30h3.3333v-.6667zm-6.8286-14.02a.6649.6649 0 00.162.02h4.6666v1.3334h-4.5846L16 15.4793v-1.292l4.5047 1.126zm-7.1714-13.98c-.7363 0-1.3333.597-1.3333 1.3334v2.6666h2V4a.6667.6667 0 01.6667-.6667h2.6666v-.6666c0-.7364-.5969-1.3334-1.3333-1.3334h-2.6667zM12 6.6667h2.6667A.6666.6666 0 0015.3333 6V4.6667h2v1.504L12 7.7707v-1.104zm5.3333 4v-3.104L12 9.1627v1.504h5.3333zm0 1.3333v1.146l-1.838-.4593a.6663.6663 0 00-.8286.6466V16c0 .3058.208.5724.5046.6467l2.162.5406v2.146H12V12h5.3333zm8 15.3333v-6.6666H12V22h11.3333a.6667.6667 0 01.6667.6667v4.6666h1.3333zM8 17.3333A.6667.6667 0 017.3333 18H2.276l.862-.862a.6667.6667 0 000-.9427l-.862-.862H8v2zM6.6667 12v2h4v-2.6667H7.3333A.6667.6667 0 006.6667 12zm6 26.6667c-1.8401-.0022-3.3312-1.4933-3.3334-3.3334h1.3334c0 1.1046.8954 2 2 2 1.1045 0 2-.8954 2-2H16c-.0022 1.8401-1.4933 3.3312-3.3333 3.3334zm0-2.6667a.6666.6666 0 00.6666-.6667H12c0 .3682.2985.6667.6667.6667zm4.6666-2H8v-6.6667a.6666.6666 0 01.6667-.6666h8a.6665.6665 0 01.6666.6666V34zm1.3334 0H20v-7.3333c-.0022-1.8401-1.4933-3.3312-3.3333-3.3334h-8c-1.84.0022-3.3312 1.4933-3.3334 3.3334V34h1.3334v-6.6667c0-1.1045.8954-2 2-2h8c1.1045 0 2 .8955 2 2V34zm1.26-10.6667h2.74V30h-1.3334v-3.3333a4.6515 4.6515 0 00-1.4066-3.3334zM34 38.6667c-1.84-.0022-3.3311-1.4933-3.3333-3.3334H32c0 1.1046.8954 2 2 2s2-.8954 2-2h1.3333C37.3311 37.1734 35.84 38.6645 34 38.6667zM34 36a.6667.6667 0 00.6667-.6667h-1.3334c0 .3682.2985.6667.6667.6667zm-2-2v-4.6667h1.3333V28H32V18h2.8l3.692 16H32zm-10.6667 0h9.3334v-2.6667h-9.3334V34zM36 28h-1.3333v1.3333H36V28zM9.3333 28h1.3334v1.3333H9.3333V28zm4 0H12v1.3333h1.3333V28zm1.3334 0H16v1.3333h-1.3333V28zm14-12.6667a.6666.6666 0 01.6666.6667A.6666.6666 0 1128 16a.6667.6667 0 01.6667-.6667zM0 4.6667h8.6667V6H0V4.6667zm9.3333 2.6666h-8v1.3334h8V7.3333z" fill="#495567"/></svg>