<svg width="39" height="48" fill="none" xmlns="http://www.w3.org/2000/svg"><path fill-rule="evenodd" clip-rule="evenodd" d="M24.7995 0H4.0105C1.8038.0028.0156 1.791.0128 3.9979v39.9786c.0028 2.2069 1.791 3.9951 3.9979 3.9979h19.9893V46.544a18.1773 18.1773 0 013.064-10.1194.7994.7994 0 00-.1-1.0091l-5.597-5.597a2.5934 2.5934 0 01.1903-3.838c1.0896-.8329 2.6306-.714 3.5797.2757l7.8926 7.8928 1.1306-1.1306-5.3628-5.3643V3.9979C28.7945 1.791 27.0063.0028 24.7995 0zm2.3987 26.0549l-.9307-.9307c-1.534-1.5672-4.0011-1.7305-5.7282-.3786a4.193 4.193 0 00-.303 6.2035l5.1413 5.1415a19.7683 19.7683 0 00-2.9712 10.2847H4.0106c-1.3245 0-2.3988-1.0743-2.3988-2.3988v-2.3987h19.9894v-1.5991H1.6118V6.3966h25.5864v19.6583zM1.6118 4.7974h25.5864V3.998c0-1.3245-1.0742-2.3988-2.3987-2.3988H4.0105c-1.3244 0-2.3987 1.0743-2.3987 2.3988v.7995zM31.155 18.6005l-1.0782 1.1786 4.9035 4.4952a5.6101 5.6101 0 011.8129 4.1266v19.5735h1.5991V28.4009a7.2148 7.2148 0 00-2.3331-5.3054l-4.9042-4.495zM4.8101 14.3923h3.1983c.8834 0 1.5992-.7158 1.5992-1.5991V9.5949c0-.8834-.7158-1.5992-1.5992-1.5992H4.8101c-.8833 0-1.5991.7159-1.5991 1.5992v3.1983c0 .8833.7158 1.5991 1.5991 1.5991zm0-4.7974h3.1983v3.1983H4.8101V9.5949zm11.1941 4.7974h-3.1983c-.8834 0-1.5992-.7158-1.5992-1.5991V9.5949c0-.8834.7158-1.5992 1.5992-1.5992h3.1983c.8833 0 1.5991.7159 1.5991 1.5992v3.1983c0 .8833-.7158 1.5991-1.5991 1.5991zm0-4.7974h-3.1983v3.1983h3.1983V9.5949zm4.7974 4.7974h3.1983c.8833 0 1.5991-.7158 1.5991-1.5991V9.5949c0-.8834-.7158-1.5992-1.5991-1.5992h-3.1983c-.8833 0-1.5991.7159-1.5991 1.5992v3.1983c0 .8833.7158 1.5991 1.5991 1.5991zm0-4.7974h3.1983v3.1983h-3.1983V9.5949zM8.0084 22.388H4.8101c-.8833 0-1.5991-.7159-1.5991-1.5992v-3.1983c0-.8833.7158-1.5991 1.5991-1.5991h3.1983c.8834 0 1.5992.7158 1.5992 1.5991v3.1983c0 .8833-.7158 1.5992-1.5992 1.5992zm0-4.7975H4.8101v3.1983h3.1983v-3.1983zM4.8101 30.3838h3.1983c.8834 0 1.5992-.7158 1.5992-1.5992v-3.1982c0-.8834-.7158-1.5992-1.5992-1.5992H4.8101c-.8833 0-1.5991.7158-1.5991 1.5992v3.1982c0 .8834.7158 1.5992 1.5991 1.5992zm0-4.7974h3.1983v3.1982H4.8101v-3.1982zm11.1941-3.1983h-3.1983c-.8834 0-1.5992-.7159-1.5992-1.5992v-3.1983c0-.8833.7158-1.5991 1.5992-1.5991h3.1983c.8833 0 1.5991.7158 1.5991 1.5991v3.1983c0 .8833-.7158 1.5992-1.5991 1.5992zm0-4.7975h-3.1983v3.1983h3.1983v-3.1983zm4.7974 4.7975h3.1983c.8833 0 1.5991-.7159 1.5991-1.5992v-3.1983c0-.8833-.7158-1.5991-1.5991-1.5991h-3.1983c-.8833 0-1.5991.7158-1.5991 1.5991v3.1983c0 .8833.7158 1.5992 1.5991 1.5992zm0-4.7975h3.1983v3.1983h-3.1983v-3.1983zm-4.7974 12.7932h-3.1983c-.8834 0-1.5992-.7158-1.5992-1.5992v-3.1982c0-.8834.7158-1.5992 1.5992-1.5992h3.1983c.8833 0 1.5991.7158 1.5991 1.5992v3.1982c0 .8834-.7158 1.5992-1.5991 1.5992zm0-4.7974h-3.1983v3.1982h3.1983v-3.1982zM4.8102 38.3795h3.1982c.8834 0 1.5992-.7158 1.5992-1.5991v-3.1983c0-.8833-.7158-1.5992-1.5992-1.5992H4.8101c-.8833 0-1.5991.7159-1.5991 1.5992v3.1983c0 .8833.7158 1.5991 1.5991 1.5991zm0-4.7974h3.1982v3.1983H4.8101v-3.1983zm11.194 4.7974h-3.1983c-.8834 0-1.5992-.7158-1.5992-1.5991v-3.1983c0-.8833.7158-1.5992 1.5992-1.5992h3.1983c.8833 0 1.5991.7159 1.5991 1.5992v3.1983c0 .8833-.7158 1.5991-1.5991 1.5991zm0-4.7974h-3.1983v3.1983h3.1983v-3.1983zm-.7996 9.5949h-1.5992v1.5991h1.5992V43.177z" fill="#495567"/></svg>