<svg width="43" height="32" fill="none" xmlns="http://www.w3.org/2000/svg"><path fill-rule="evenodd" clip-rule="evenodd" d="M34.5391 16.4188l-1.927-8.7057c.52-.0704.9787-.335 1.3013-.718.3809.238.8301.3763 1.3114.3763h1.6538a.8268.8268 0 00.8268-.827V3.237a.8268.8268 0 00-.8268-.8269h-1.6538c-.4955 0-.9574.1467-1.3453.3983-.3785-.428-.9312-.6987-1.5462-.6987h-4.8811c-.8769 0-1.6276.5501-1.9264 1.323h-1.9599c-1.1854 0-2.1499.9645-2.1499 2.1499s.9645 2.1499 2.1499 2.1499h4.2561v1.6663c0 .4567.3702.8269.8269.8269a.8268.8268 0 00.8269-.8269V7.7325h1.447l2.0756 9.3782-3.9283 6.9968a2.4288 2.4288 0 01-2.1131 1.2348h-9.8065c-.4105-3.4428-3.3459-6.1215-6.8973-6.1215-1.5713 0-3.054.512-4.2874 1.4803l-.0049.0039c-1.4686 1.1551-2.3918 2.8127-2.6069 4.6373H1.6557c.1079-5.9445 4.977-10.7468 10.9464-10.7468h5.8656c.4629 0 .8398.377.8398.8401v7.4261c0 .4567.3701.8268.8269.8268h4.3998a4.9325 4.9325 0 004.3166-2.5468 4.9427 4.9427 0 00.615-2.3795l.0042-2.7471a.8272.8272 0 00-.8259-.8282h-.001a.827.827 0 00-.8269.8256l-.0042 2.7478a3.284 3.284 0 01-.4086 1.5817 3.279 3.279 0 01-2.8692 1.6925h-3.573v-6.5992c0-.4234-.1065-.8227-.2936-1.1725.7429-.4292 1.2442-1.2316 1.2442-2.1492 0-1.3679-1.113-2.4806-2.4806-2.4806h-3.0181c-.29 0-.5681.0504-.8269.1421V2.522c0-1.368-1.113-2.4806-2.4806-2.4806H7.7713c-3.867 0-7.0827 2.8391-7.6738 6.542a.8268.8268 0 00-.0384.2493c0 .0026.0002.0052.0003.0077a.11.11 0 01.0004.0072A7.809 7.809 0 000 7.8125v4.3014c0 1.242.9176 2.2736 2.1105 2.4529l1.831 1.831C1.5155 18.6963 0 21.9463 0 25.5442v.625c0 .4567.3702.8268.8269.8268h4.647a.845.845 0 00-.0165.1654c0 1.2.444 2.2978 1.1753 3.1395H.827A.827.827 0 000 31.1278c0 .4567.3702.8269.8269.8269h9.3307l.0276.0009c.0227.0009.0453.0017.068.0017 2.6444 0 4.7959-2.1515 4.7959-4.7959a.842.842 0 00-.0165-.1654H26.957c1.302 0 2.5188-.624 3.2814-1.6563h1.0471a4.7914 4.7914 0 00-.3604 1.8217c0 1.2.4441 2.2978 1.1754 3.1395H21.3773a.827.827 0 000 1.6538h14.248c.032.001.0637.0026.0956.0026 2.6444 0 4.7959-2.1515 4.7959-4.7959 0-.6311-.125-1.2487-.3605-1.8217h1.3527a.8268.8268 0 00.8269-.8269c0-4.3646-3.4706-7.9341-7.7968-8.094zm-18.126-5.1317h3.0181c.4558 0 .8269.3708.8269.8268 0 .4558-.3711.8269-.8269.8269h-3.0181c-.4561 0-.8269-.3711-.8269-.8269 0-.456.3708-.8268.8269-.8268zM1.6561 7.7109a2.9934 2.9934 0 00-.0023.1017v4.3013c0 .4558.3708.8269.8265.8269h10.625c.4561 0 .8269-.3711.8269-.8269V2.5222c0-.456-.3708-.8269-.8269-.8269h-5.334c-2.7445 0-5.0723 1.8166-5.845 4.3107h8.7794a.8268.8268 0 01.8269.827.8268.8268 0 01-.8269.8268h-9.048l-.0017.051zm2.821 6.8837h1.892a12.5916 12.5916 0 00-1.1495.7425l-.7425-.7425zm5.8081 15.708c1.7177-.0172 3.1101-1.4193 3.1101-3.1412a.8496.8496 0 01.0165-.1654H7.0946a.845.845 0 01.0165.1654c0 1.7006 1.3582 3.0888 3.0468 3.1395h.0953c.0061 0 .0122.0005.0183.0009l.0137.0008zm-5.2626-4.9603c.2048-1.3136.8947-2.5003 1.9603-3.3372.0026-.0016.0048-.0039.0074-.0055.9386-.7358 2.0669-1.125 3.2629-1.125 2.6383 0 4.8317 1.9396 5.23 4.4677H5.0226zM36.0517 4.0639h-.8269c-.4561 0-.8269.371-.8269.8268 0 .4561.3708.827.8269.827h.8269V4.0638zM23.0698 5.5826a.4966.4966 0 01.4961-.4961h1.8217v.5814c0 .1408.0142.278.041.4108h-1.8627a.4966.4966 0 01-.4961-.4961zm4.3824.4961h4.8811a.4113.4113 0 00.4109-.4108V4.1743a.4115.4115 0 00-.4109-.4108h-4.8811a.4115.4115 0 00-.4109.4108V5.668c0 .2267.1845.4108.4109.4108zM38.863 27.1614c0 1.7219-1.3924 3.124-3.1101 3.1412l-.0067-.0003-.007-.0005c-.0061-.0004-.0122-.0008-.0183-.0008h-.0953c-1.6886-.0508-3.0468-1.439-3.0468-3.1396 0-.657.2048-1.292.5821-1.8217h5.1201a3.1366 3.1366 0 01.582 1.8217zM34.3563 18.07l-3.1531 5.616h9.426c-.4018-3.1263-3.053-5.5569-6.2729-5.616z" fill="#495567"/></svg>